<svg width="156" height="18" viewBox="0 0 156 18" fill="none" xmlns="http://www.w3.org/2000/svg">
<path d="M0.532898 17.6951V1.89991H5.25568C6.83931 1.89991 8.19805 2.14349 9.31315 2.61191C10.4283 3.08033 11.3278 3.71739 12.0025 4.49497C12.6866 5.28192 13.1832 6.16255 13.4924 7.13687C13.811 8.11119 13.9703 9.09487 13.9703 10.0786C13.9703 11.2496 13.7548 12.3082 13.3331 13.2451C12.9115 14.1819 12.3399 14.9783 11.6089 15.6434C10.878 16.3086 10.0347 16.8145 9.07888 17.1705C8.11371 17.5171 7.10169 17.6951 6.02407 17.6951H0.532898ZM3.64394 14.6878H5.48995C6.27708 14.6878 6.98924 14.5848 7.63581 14.3787C8.28238 14.1726 8.83525 13.8634 9.30378 13.4699C9.76294 13.0671 10.119 12.5612 10.372 11.9522C10.625 11.3433 10.7468 10.65 10.7468 9.86308C10.7468 8.83255 10.5782 7.98939 10.2408 7.34297C9.90349 6.68718 9.49119 6.19065 8.99455 5.82528C8.50728 5.46928 8.00127 5.2257 7.48589 5.08518C6.9705 4.95402 6.53945 4.88844 6.174 4.88844H3.64394V14.6878ZM16.5847 8.31729H19.5927V17.6951H16.5847V8.31729ZM16.5191 4.99149C16.5191 4.55118 16.6972 4.18581 17.0439 3.89539C17.4 3.61433 17.7748 3.47381 18.1684 3.47381C18.5713 3.47381 18.9461 3.61433 19.2741 3.89539C19.6114 4.18581 19.7801 4.55118 19.7801 4.99149C19.7801 5.43181 19.6114 5.79718 19.2741 6.07823C18.9461 6.35929 18.5713 6.49044 18.1684 6.49044C17.7748 6.49044 17.4 6.35929 17.0439 6.07823C16.6972 5.79718 16.5191 5.43181 16.5191 4.99149ZM26.63 17.948C25.7586 17.948 24.962 17.7794 24.2593 17.4234C23.5471 17.0768 22.9849 16.5334 22.5725 15.8027C22.1602 15.0719 21.9541 14.1445 21.9541 13.0202C21.9541 11.9616 22.1602 11.0435 22.5913 10.2659C23.0223 9.49771 23.5846 8.89813 24.2874 8.47655C24.9902 8.05497 25.7304 7.84887 26.5176 7.84887C27.4546 7.84887 28.1574 7.99876 28.6353 8.30792C29.1132 8.61708 29.5068 8.95434 29.8254 9.32908L29.6942 9.69445L29.9753 8.31729H32.7678V17.6951H29.7598V15.6528L29.9941 16.2992C29.966 16.2992 29.8816 16.3835 29.7411 16.5428C29.6005 16.7114 29.385 16.8988 29.1039 17.1236C28.8227 17.3485 28.4854 17.5358 28.0731 17.7045C27.6702 17.8731 27.1829 17.948 26.63 17.948ZM27.4827 15.5029C27.8482 15.5029 28.1668 15.456 28.4479 15.3436C28.7384 15.2406 28.9914 15.0813 29.2069 14.8752C29.4131 14.6691 29.6005 14.4068 29.7598 14.0882V11.793C29.6474 11.4745 29.4787 11.2121 29.2444 10.9873C29.0195 10.7718 28.7478 10.5938 28.4292 10.472C28.1199 10.3502 27.7639 10.294 27.3797 10.294C26.9486 10.294 26.5551 10.4065 26.1896 10.6219C25.8242 10.8468 25.5337 11.1466 25.3181 11.54C25.1026 11.9241 24.9995 12.3645 24.9995 12.8704C24.9995 13.3669 25.112 13.8166 25.3369 14.2194C25.5711 14.6223 25.871 14.9314 26.2552 15.1656C26.63 15.3905 27.0423 15.5029 27.4827 15.5029ZM38.5775 8.31729L38.8118 9.96614L38.7743 9.84435C39.1491 9.21666 39.6083 8.72013 40.1705 8.3735C40.7234 8.0175 41.3981 7.84887 42.1852 7.84887C42.7006 7.84887 43.1504 7.91445 43.544 8.06434C43.9375 8.20487 44.2749 8.41097 44.5466 8.69203C44.8184 8.97308 45.0058 9.32908 45.0995 9.77877L44.9964 9.7975C45.3993 9.21666 45.8772 8.73887 46.4488 8.38287C47.0111 8.02687 47.6014 7.84887 48.2199 7.84887C49.1476 7.84887 49.8878 8.11118 50.4407 8.62645C50.9842 9.15108 51.2653 9.82561 51.2841 10.6594V17.6951H48.3042V11.9054C48.2855 11.4838 48.2199 11.1466 48.1074 10.8842C47.995 10.6219 47.7326 10.472 47.3109 10.4439C46.8237 10.4439 46.4207 10.6126 46.0834 10.9498C45.746 11.2777 45.493 11.7087 45.3337 12.2333C45.1651 12.7579 45.0807 13.2919 45.0807 13.854V17.6951H42.0821V11.9054C42.0634 11.4838 41.9884 11.1466 41.8572 10.8842C41.7167 10.6219 41.4449 10.472 41.0233 10.4439C40.5547 10.4439 40.1612 10.6126 39.8332 10.9498C39.5146 11.2777 39.271 11.7087 39.1023 12.2239C38.943 12.7392 38.8587 13.2638 38.8587 13.8072V17.6951H35.8507V8.31729H38.5775ZM53.6455 12.8891C53.6455 11.9335 53.8704 11.0716 54.3201 10.3128C54.7699 9.55393 55.4071 8.95434 56.2224 8.5234C57.0376 8.08308 57.9747 7.86761 59.0336 7.86761C60.1018 7.86761 61.0295 8.08308 61.8166 8.5234C62.6037 8.95434 63.2128 9.55393 63.6345 10.3128C64.0562 11.0716 64.2623 11.9335 64.2623 12.8891C64.2623 13.8447 64.0562 14.7066 63.6345 15.4748C63.2128 16.2336 62.6037 16.8426 61.8166 17.2829C61.0295 17.7326 60.0924 17.948 58.9867 17.948C57.9559 17.948 57.0376 17.7513 56.2317 17.3485C55.4259 16.9456 54.7887 16.3742 54.3295 15.6153C53.8704 14.8565 53.6455 13.9477 53.6455 12.8891ZM56.6722 12.9078C56.6722 13.395 56.7659 13.8353 56.972 14.2288C57.1688 14.6223 57.4406 14.9314 57.7873 15.1656C58.134 15.3905 58.5182 15.5029 58.9492 15.5029C59.4177 15.5029 59.8207 15.3905 60.1674 15.1656C60.5141 14.9314 60.7765 14.6223 60.9639 14.2288C61.1513 13.8353 61.245 13.395 61.245 12.9078C61.245 12.4113 61.1513 11.9616 60.9639 11.5775C60.7765 11.1934 60.5141 10.8842 60.1674 10.6594C59.8207 10.4252 59.4177 10.3128 58.9492 10.3128C58.5182 10.3128 58.134 10.4252 57.7873 10.6594C57.4406 10.8842 57.1688 11.1934 56.972 11.5775C56.7659 11.9616 56.6722 12.4113 56.6722 12.9078ZM69.3506 8.31729L69.5848 9.99424L69.5474 9.84435C69.8754 9.25414 70.3439 8.77634 70.9436 8.41097C71.5433 8.04561 72.2742 7.86761 73.155 7.86761C74.0359 7.86761 74.7762 8.12992 75.3759 8.65455C75.9662 9.16982 76.2661 9.84435 76.2848 10.6781V17.6951H73.2769V11.793C73.2675 11.3808 73.155 11.0435 72.9489 10.7999C72.7427 10.547 72.396 10.4252 71.9088 10.4252C71.4496 10.4252 71.0467 10.5751 70.7 10.8749C70.3626 11.1747 70.1002 11.5775 69.9128 12.0928C69.7254 12.608 69.6317 13.1982 69.6317 13.8728V17.6951H66.6237V8.31729H69.3506ZM83.191 17.948C82.3195 17.948 81.5417 17.7513 80.8577 17.3391C80.1643 16.9363 79.6301 16.346 79.2366 15.5685C78.843 14.8003 78.6462 13.8821 78.6462 12.8235C78.6462 11.7649 78.8618 10.8655 79.2834 10.116C79.7145 9.37592 80.3048 8.81382 81.0451 8.42971C81.7947 8.03624 82.6381 7.84887 83.5752 7.84887C84.1842 7.84887 84.7559 7.94255 85.3087 8.12055C85.8616 8.30792 86.3207 8.59834 86.6956 8.98245V9.92866V0.766327H89.6754V17.6951H86.6674V15.8683L86.9017 16.5147C86.4238 16.9175 85.8803 17.2548 85.2712 17.5358C84.6715 17.8075 83.9781 17.948 83.191 17.948ZM84.1842 15.4186C84.5778 15.4186 84.9339 15.3624 85.2431 15.2593C85.5524 15.1469 85.8241 14.997 86.0584 14.7909C86.2926 14.5754 86.4988 14.3225 86.6674 14.0039V11.7087C86.555 11.3901 86.377 11.1278 86.1427 10.903C85.9084 10.6781 85.6179 10.5095 85.29 10.3877C84.9526 10.2659 84.5778 10.2097 84.1842 10.2097C83.7345 10.2097 83.3221 10.3128 82.9473 10.5376C82.5631 10.7625 82.2633 11.0622 82.0384 11.4463C81.8041 11.8398 81.6917 12.2801 81.6917 12.7767C81.6917 13.2826 81.8041 13.7322 82.0384 14.1351C82.2633 14.5286 82.5631 14.8471 82.9473 15.0719C83.3221 15.3061 83.7345 15.4186 84.1842 15.4186ZM105.933 1.89991V17.6951H102.822V11.2777H95.766V17.6951H92.655V1.89991H95.766V8.27982H102.822V1.89991H105.933ZM113.467 17.948C112.596 17.948 111.799 17.7794 111.096 17.4234C110.384 17.0768 109.822 16.5334 109.41 15.8027C108.997 15.0719 108.791 14.1445 108.791 13.0202C108.791 11.9616 109.007 11.0435 109.428 10.2659C109.859 9.49771 110.422 8.89813 111.124 8.47655C111.827 8.05497 112.567 7.84887 113.355 7.84887C114.292 7.84887 114.994 7.99876 115.472 8.30792C115.95 8.61708 116.344 8.95434 116.662 9.32908L116.531 9.69445L116.812 8.31729H119.605V17.6951H116.597V15.6528L116.831 16.2992C116.803 16.2992 116.719 16.3835 116.578 16.5428C116.438 16.7114 116.222 16.8988 115.941 17.1236C115.669 17.3485 115.322 17.5358 114.91 17.7045C114.507 17.8731 114.02 17.948 113.467 17.948ZM114.32 15.5029C114.685 15.5029 115.004 15.456 115.294 15.3436C115.575 15.2406 115.828 15.0813 116.044 14.8752C116.26 14.6691 116.438 14.4068 116.597 14.0882V11.793C116.484 11.4745 116.316 11.2121 116.081 10.9873C115.857 10.7718 115.585 10.5938 115.266 10.472C114.957 10.3502 114.601 10.294 114.217 10.294C113.786 10.294 113.392 10.4065 113.027 10.6219C112.661 10.8468 112.371 11.1466 112.155 11.54C111.94 11.9241 111.837 12.3645 111.837 12.8704C111.837 13.3669 111.949 13.8166 112.174 14.2194C112.408 14.6223 112.708 14.9314 113.092 15.1656C113.467 15.3905 113.879 15.5029 114.32 15.5029ZM125.415 8.31729L125.658 9.99424L125.611 9.84435C125.939 9.25414 126.408 8.77634 127.008 8.41097C127.607 8.04561 128.348 7.86761 129.219 7.86761C130.1 7.86761 130.84 8.12992 131.44 8.65455C132.03 9.16982 132.339 9.84435 132.349 10.6781V17.6951H129.341V11.793C129.331 11.3808 129.219 11.0435 129.013 10.7999C128.807 10.547 128.46 10.4252 127.973 10.4252C127.514 10.4252 127.111 10.5751 126.773 10.8749C126.427 11.1747 126.164 11.5775 125.977 12.0928C125.789 12.608 125.696 13.1982 125.696 13.8728V17.6951H122.697V8.31729H125.415ZM139.255 17.948C138.383 17.948 137.606 17.7513 136.922 17.3391C136.238 16.9363 135.694 16.346 135.301 15.5685C134.907 14.8003 134.71 13.8821 134.71 12.8235C134.71 11.7649 134.926 10.8655 135.357 10.116C135.778 9.37592 136.369 8.81382 137.109 8.42971C137.859 8.03624 138.702 7.84887 139.649 7.84887C140.248 7.84887 140.82 7.94255 141.373 8.12055C141.926 8.30792 142.385 8.59834 142.76 8.98245V9.92866V0.766327H145.739V17.6951H142.731V15.8683L142.975 16.5147C142.488 16.9175 141.944 17.2548 141.345 17.5358C140.736 17.8075 140.042 17.948 139.255 17.948ZM140.248 15.4186C140.651 15.4186 140.998 15.3624 141.307 15.2593C141.616 15.1469 141.888 14.997 142.122 14.7909C142.357 14.5754 142.563 14.3225 142.731 14.0039V11.7087C142.619 11.3901 142.45 11.1278 142.207 10.903C141.972 10.6781 141.691 10.5095 141.354 10.3877C141.017 10.2659 140.651 10.2097 140.248 10.2097C139.798 10.2097 139.396 10.3128 139.011 10.5376C138.637 10.7625 138.327 11.0622 138.102 11.4463C137.868 11.8398 137.756 12.2801 137.756 12.7767C137.756 13.2826 137.868 13.7322 138.102 14.1351C138.327 14.5286 138.637 14.8471 139.011 15.0719C139.396 15.3061 139.798 15.4186 140.248 15.4186ZM151.877 17.8825C151.109 17.8825 150.387 17.7513 149.722 17.4796C149.057 17.2079 148.494 16.8238 148.035 16.346L149.281 14.6878C149.741 15.1094 150.162 15.3998 150.556 15.5778C150.949 15.7558 151.306 15.8495 151.624 15.8495C151.858 15.8495 152.083 15.8214 152.271 15.7746C152.468 15.7277 152.617 15.6434 152.739 15.5404C152.852 15.4279 152.908 15.2874 152.908 15.1188C152.908 14.8752 152.814 14.6785 152.617 14.5379C152.421 14.3974 152.177 14.2756 151.877 14.1819C151.577 14.0883 151.259 13.9946 150.912 13.8915C150.05 13.6198 149.431 13.2264 149.057 12.7017C148.672 12.1865 148.485 11.615 148.485 10.9967C148.485 10.5282 148.616 10.0505 148.86 9.57266C149.113 9.09487 149.516 8.69203 150.059 8.3735C150.612 8.04561 151.324 7.88634 152.196 7.88634C152.983 7.88634 153.648 7.97066 154.192 8.12055C154.735 8.27982 155.251 8.54213 155.738 8.89813L154.604 10.6594C154.332 10.4439 154.023 10.2566 153.695 10.1067C153.358 9.95677 153.039 9.87245 152.758 9.86308C152.496 9.84435 152.28 9.87245 152.102 9.9474C151.924 10.0223 151.783 10.116 151.68 10.2285C151.587 10.3409 151.53 10.4627 151.53 10.5938C151.521 10.8655 151.624 11.081 151.849 11.2402C152.065 11.3901 152.346 11.5119 152.692 11.5962C153.039 11.6899 153.376 11.7836 153.704 11.9054C154.164 12.0459 154.548 12.2333 154.885 12.4769C155.213 12.7205 155.466 13.0109 155.644 13.3481C155.822 13.6854 155.916 14.0883 155.916 14.5567C155.916 15.1375 155.766 15.6715 155.475 16.1774C155.176 16.6927 154.735 17.0955 154.145 17.414C153.545 17.7326 152.795 17.8825 151.877 17.8825Z" fill="#2B2F41"/>
</svg>
