<svg width="32" height="32" viewBox="0 0 32 32" fill="none" xmlns="http://www.w3.org/2000/svg">
<path d="M0 1.11429C0 0.818759 0.117406 0.535336 0.326389 0.326367C0.535373 0.117397 0.818816 0 1.11436 0H1.94345C3.35498 0 4.20189 0.949371 4.68478 1.83189C5.00721 2.42023 5.24048 3.10217 5.42324 3.72023C5.47267 3.71633 5.52223 3.71434 5.57182 3.71429H24.1416C25.3748 3.71429 26.2663 4.89394 25.9275 6.08103L23.2115 15.603C22.9679 16.457 22.4527 17.2085 21.7439 17.7436C21.035 18.2787 20.1711 18.5683 19.2829 18.5685H10.4453C9.55009 18.5685 8.67963 18.2745 7.96774 17.7318C7.25584 17.1891 6.7419 16.4276 6.50491 15.5643L5.37569 11.4459L3.50356 5.13463L3.50207 5.12274C3.27029 4.28034 3.05336 3.49143 2.72945 2.90309C2.41891 2.33109 2.16929 2.22857 1.94494 2.22857H1.11436C0.818816 2.22857 0.535373 2.11117 0.326389 1.9022C0.117406 1.69324 0 1.40981 0 1.11429ZM7.53756 10.9051L8.65341 14.9745C8.87628 15.7798 9.60879 16.3399 10.4453 16.3399H19.2829C19.6867 16.3399 20.0794 16.2083 20.4016 15.9652C20.7239 15.722 20.9581 15.3805 21.0689 14.9923L23.6498 5.94286H6.06957L7.51675 10.8264L7.53756 10.9051ZM12.6295 23.0286C12.6295 23.8166 12.3164 24.5724 11.7591 25.1297C11.2018 25.6869 10.4459 26 9.65782 26C8.86969 26 8.11384 25.6869 7.55655 25.1297C6.99926 24.5724 6.68618 23.8166 6.68618 23.0286C6.68618 22.2405 6.99926 21.4847 7.55655 20.9275C8.11384 20.3702 8.86969 20.0571 9.65782 20.0571C10.4459 20.0571 11.2018 20.3702 11.7591 20.9275C12.3164 21.4847 12.6295 22.2405 12.6295 23.0286ZM10.4007 23.0286C10.4007 22.8316 10.3225 22.6426 10.1831 22.5033C10.0438 22.364 9.85485 22.2857 9.65782 22.2857C9.46079 22.2857 9.27182 22.364 9.1325 22.5033C8.99318 22.6426 8.91491 22.8316 8.91491 23.0286C8.91491 23.2256 8.99318 23.4145 9.1325 23.5539C9.27182 23.6932 9.46079 23.7714 9.65782 23.7714C9.85485 23.7714 10.0438 23.6932 10.1831 23.5539C10.3225 23.4145 10.4007 23.2256 10.4007 23.0286ZM23.0302 23.0286C23.0302 23.8166 22.7171 24.5724 22.1598 25.1297C21.6025 25.6869 20.8467 26 20.0585 26C19.2704 26 18.5146 25.6869 17.9573 25.1297C17.4 24.5724 17.0869 23.8166 17.0869 23.0286C17.0869 22.2405 17.4 21.4847 17.9573 20.9275C18.5146 20.3702 19.2704 20.0571 20.0585 20.0571C20.8467 20.0571 21.6025 20.3702 22.1598 20.9275C22.7171 21.4847 23.0302 22.2405 23.0302 23.0286ZM20.8015 23.0286C20.8015 22.8316 20.7232 22.6426 20.5839 22.5033C20.4445 22.364 20.2556 22.2857 20.0585 22.2857C19.8615 22.2857 19.6726 22.364 19.5332 22.5033C19.3939 22.6426 19.3156 22.8316 19.3156 23.0286C19.3156 23.2256 19.3939 23.4145 19.5332 23.5539C19.6726 23.6932 19.8615 23.7714 20.0585 23.7714C20.2556 23.7714 20.4445 23.6932 20.5839 23.5539C20.7232 23.4145 20.8015 23.2256 20.8015 23.0286Z" fill="#2B2F41"/>
</svg>
