<svg width="22" height="22" viewBox="0 0 22 22" fill="none" xmlns="http://www.w3.org/2000/svg">
<circle cx="11" cy="11" r="10" fill="#91939B" stroke="#161616" stroke-width="2"/>
<path fill-rule="evenodd" clip-rule="evenodd" d="M7.83482 6.77424C7.54192 6.48135 7.06705 6.48135 6.77416 6.77424C6.48126 7.06714 6.48126 7.54201 6.77416 7.8349L9.99693 11.0577L6.77416 14.2805C6.48126 14.5733 6.48126 15.0482 6.77416 15.3411C7.06705 15.634 7.54193 15.634 7.83482 15.3411L11.0576 12.1183L14.2804 15.3411C14.5733 15.634 15.0481 15.634 15.341 15.3411C15.6339 15.0482 15.6339 14.5733 15.341 14.2805L12.1183 11.0577L15.341 7.8349C15.6339 7.54201 15.6339 7.06714 15.341 6.77424C15.0481 6.48135 14.5733 6.48135 14.2804 6.77424L11.0576 9.99702L7.83482 6.77424Z" fill="white"/>
</svg>
