<svg width="16" height="16" viewBox="0 0 16 16" fill="none" xmlns="http://www.w3.org/2000/svg">
<g clip-path="url(#clip0_240_946)">
<path d="M13.5445 2.99469C12.5245 2.53469 11.4312 2.19469 10.2878 2.00136C10.2776 1.9994 10.2671 2.00066 10.2577 2.00496C10.2482 2.00926 10.2404 2.01639 10.2352 2.02536C10.0952 2.27136 9.93917 2.59202 9.82983 2.84536C8.61723 2.66418 7.38444 2.66418 6.17183 2.84536C6.05006 2.5646 5.91273 2.29084 5.7605 2.02536C5.75534 2.01628 5.74753 2.00899 5.73812 2.00446C5.72871 1.99994 5.71815 1.99839 5.70783 2.00002C4.56517 2.19336 3.47183 2.53336 2.45117 2.99402C2.44238 2.99771 2.43494 3.00399 2.42983 3.01202C0.355165 6.06202 -0.213501 9.03669 0.0658321 11.974C0.0666094 11.9812 0.0688425 11.9882 0.0723954 11.9945C0.0759484 12.0008 0.0807468 12.0063 0.0864988 12.0107C1.29743 12.8923 2.64806 13.5639 4.08183 13.9974C4.09183 14.0004 4.10252 14.0004 4.11251 13.9973C4.1225 13.9942 4.13132 13.9882 4.13783 13.98C4.44636 13.5674 4.71976 13.1296 4.95517 12.6714C4.95843 12.6651 4.96032 12.6582 4.96069 12.6511C4.96106 12.6441 4.95991 12.637 4.95732 12.6305C4.95473 12.6239 4.95075 12.6179 4.94566 12.613C4.94058 12.6081 4.9345 12.6044 4.92783 12.602C4.49717 12.4398 4.07989 12.2441 3.67983 12.0167C3.67264 12.0126 3.66659 12.0068 3.6622 11.9997C3.65782 11.9927 3.65525 11.9847 3.65472 11.9765C3.65419 11.9682 3.65572 11.9599 3.65917 11.9524C3.66263 11.9449 3.66789 11.9383 3.6745 11.9334C3.7585 11.8714 3.8425 11.8067 3.9225 11.742C3.9297 11.7362 3.93837 11.7325 3.94756 11.7313C3.95674 11.7302 3.96606 11.7315 3.9745 11.7354C6.5925 12.9114 9.42783 12.9114 12.0152 11.7354C12.0236 11.7313 12.033 11.7297 12.0424 11.7308C12.0517 11.7319 12.0605 11.7355 12.0678 11.7414C12.1478 11.8067 12.2312 11.8714 12.3158 11.9334C12.3225 11.9382 12.3279 11.9447 12.3314 11.9522C12.335 11.9596 12.3366 11.9678 12.3362 11.9761C12.3358 11.9844 12.3334 11.9924 12.3291 11.9995C12.3249 12.0065 12.3189 12.0125 12.3118 12.0167C11.9132 12.246 11.4985 12.44 11.0632 12.6014C11.0565 12.6038 11.0504 12.6076 11.0453 12.6126C11.0402 12.6175 11.0362 12.6235 11.0337 12.6302C11.0311 12.6368 11.0299 12.6439 11.0303 12.651C11.0307 12.6581 11.0326 12.665 11.0358 12.6714C11.2758 13.1294 11.5505 13.5654 11.8525 13.9794C11.8588 13.9879 11.8675 13.9942 11.8775 13.9975C11.8876 14.0009 11.8984 14.0011 11.9085 13.998C13.3447 13.5658 14.6976 12.8939 15.9098 12.0107C15.9157 12.0066 15.9207 12.0012 15.9244 11.995C15.9281 11.9888 15.9304 11.9819 15.9312 11.9747C16.2645 8.57869 15.3725 5.62802 13.5652 3.01336C13.5607 3.00486 13.5534 2.99824 13.5445 2.99469ZM5.3465 10.1854C4.5585 10.1854 3.9085 9.47269 3.9085 8.59869C3.9085 7.72402 4.54583 7.01202 5.3465 7.01202C6.15317 7.01202 6.79717 7.73002 6.7845 8.59869C6.7845 9.47336 6.14717 10.1854 5.3465 10.1854ZM10.6632 10.1854C9.8745 10.1854 9.22517 9.47269 9.22517 8.59869C9.22517 7.72402 9.86183 7.01202 10.6632 7.01202C11.4698 7.01202 12.1138 7.73002 12.1012 8.59869C12.1012 9.47336 11.4705 10.1854 10.6632 10.1854Z" fill="#F8F8F8"/>
</g>
<defs>
<clipPath id="clip0_240_946">
<rect width="16" height="16" fill="white"/>
</clipPath>
</defs>
</svg>
