<svg width="12" height="12" viewBox="0 0 16 12" fill="none" xmlns="http://www.w3.org/2000/svg">
<g clip-path="url(#clip0_240_946)">
<path d="M13.5445 0.99469C12.5245 0.53469 11.4312 0.19469 10.2878 0.00135643C10.2776 -0.000598297 10.2671 0.000661397 10.2577 0.00496131C10.2482 0.00926123 10.2404 0.0163886 10.2352 0.0253564C10.0952 0.271356 9.93917 0.592023 9.82983 0.845356C8.61723 0.664181 7.38444 0.664181 6.17183 0.845356C6.05006 0.564597 5.91273 0.290839 5.7605 0.0253564C5.75534 0.0162782 5.74753 0.0089896 5.73812 0.00446318C5.72871 -6.32419e-05 5.71815 -0.00161223 5.70783 2.30304e-05C4.56517 0.193356 3.47183 0.533356 2.45117 0.994023C2.44238 0.997706 2.43494 1.00399 2.42983 1.01202C0.355165 4.06202 -0.213501 7.03669 0.0658321 9.97402C0.0666094 9.98122 0.0688425 9.98818 0.0723954 9.99448C0.0759484 10.0008 0.0807468 10.0063 0.0864988 10.0107C1.29743 10.8923 2.64806 11.5639 4.08183 11.9974C4.09183 12.0004 4.10252 12.0004 4.11251 11.9973C4.1225 11.9942 4.13132 11.9882 4.13783 11.98C4.44636 11.5674 4.71976 11.1296 4.95517 10.6714C4.95843 10.6651 4.96032 10.6582 4.96069 10.6511C4.96106 10.6441 4.95991 10.637 4.95732 10.6305C4.95473 10.6239 4.95075 10.6179 4.94566 10.613C4.94058 10.6081 4.9345 10.6044 4.92783 10.602C4.49717 10.4398 4.07989 10.2441 3.67983 10.0167C3.67264 10.0126 3.66659 10.0068 3.6622 9.99974C3.65782 9.99272 3.65525 9.98472 3.65472 9.97646C3.65419 9.9682 3.65572 9.95994 3.65917 9.95241C3.66263 9.94489 3.66789 9.93834 3.6745 9.93336C3.7585 9.87136 3.8425 9.80669 3.9225 9.74202C3.9297 9.73621 3.93837 9.73251 3.94756 9.73133C3.95674 9.73015 3.96606 9.73155 3.9745 9.73536C6.5925 10.9114 9.42783 10.9114 12.0152 9.73536C12.0236 9.73132 12.033 9.72974 12.0424 9.7308C12.0517 9.73186 12.0605 9.73552 12.0678 9.74135C12.1478 9.80669 12.2312 9.87136 12.3158 9.93336C12.3225 9.93824 12.3279 9.9447 12.3314 9.95216C12.335 9.95962 12.3366 9.96784 12.3362 9.9761C12.3358 9.98435 12.3334 9.99238 12.3291 9.99947C12.3249 10.0066 12.3189 10.0125 12.3118 10.0167C11.9132 10.246 11.4985 10.44 11.0632 10.6014C11.0565 10.6038 11.0504 10.6076 11.0453 10.6126C11.0402 10.6175 11.0362 10.6235 11.0337 10.6302C11.0311 10.6368 11.0299 10.6439 11.0303 10.651C11.0307 10.6581 11.0326 10.665 11.0358 10.6714C11.2758 11.1294 11.5505 11.5654 11.8525 11.9794C11.8588 11.9879 11.8675 11.9942 11.8775 11.9975C11.8876 12.0009 11.8984 12.0011 11.9085 11.998C13.3447 11.5658 14.6976 10.8939 15.9098 10.0107C15.9157 10.0066 15.9207 10.0012 15.9244 9.99499C15.9281 9.98879 15.9304 9.98186 15.9312 9.97469C16.2645 6.57869 15.3725 3.62802 13.5652 1.01336C13.5607 1.00486 13.5534 0.998236 13.5445 0.99469ZM5.3465 8.18536C4.5585 8.18536 3.9085 7.47269 3.9085 6.59869C3.9085 5.72402 4.54583 5.01202 5.3465 5.01202C6.15317 5.01202 6.79717 5.73002 6.7845 6.59869C6.7845 7.47336 6.14717 8.18536 5.3465 8.18536ZM10.6632 8.18536C9.8745 8.18536 9.22517 7.47269 9.22517 6.59869C9.22517 5.72402 9.86183 5.01202 10.6632 5.01202C11.4698 5.01202 12.1138 5.73002 12.1012 6.59869C12.1012 7.47336 11.4705 8.18536 10.6632 8.18536Z" fill="#2B2F41"/></g>
<defs>
<clipPath id="clip0_240_946">
<rect width="16" height="12" fill="white"/>
</clipPath>
</defs>
</svg>
