<svg width="16" height="17" viewBox="0 0 16 17" fill="none" xmlns="http://www.w3.org/2000/svg">
<path d="M14.9998 9.90001H9.39971V15.5001H14.9998V9.90001ZM4.14959 1.49982L7.29966 7.09995H0.999512L4.14959 1.49982ZM12.1998 7.09995C12.9424 7.09995 13.6546 6.80494 14.1797 6.27983C14.7048 5.75471 14.9998 5.04251 14.9998 4.29988C14.9998 3.55726 14.7048 2.84505 14.1797 2.31994C13.6546 1.79482 12.9424 1.49982 12.1998 1.49982C11.4571 1.49982 10.7449 1.79482 10.2198 2.31994C9.69471 2.84505 9.39971 3.55726 9.39971 4.29988C9.39971 5.04251 9.69471 5.75471 10.2198 6.27983C10.7449 6.80494 11.4571 7.09995 12.1998 7.09995Z" stroke="#91939B" stroke-width="1.5" stroke-linejoin="round"/>
<path d="M0.999512 9.90002L6.59964 15.5002M6.59964 9.90002L0.999512 15.5002" stroke="#91939B" stroke-width="1.5" stroke-linecap="round" stroke-linejoin="round"/>
</svg>
