<svg width="20" height="21" viewBox="0 0 20 21" fill="none" xmlns="http://www.w3.org/2000/svg">
<path d="M11.5625 3H10.625V2.375C10.625 2.02982 10.3452 1.75 10 1.75C9.65482 1.75 9.375 2.02982 9.375 2.375V3.625C9.375 3.97018 9.65482 4.25 10 4.25H11.5625C11.7351 4.25 11.875 4.38991 11.875 4.5625C11.875 4.73509 11.7351 4.875 11.5625 4.875H10C9.65482 4.875 9.375 5.15482 9.375 5.5V7.375H10.625V6.125H11.5625C12.4254 6.125 13.125 5.42544 13.125 4.5625C13.125 3.69956 12.4254 3 11.5625 3Z" fill="#475F8A"/>
<path d="M17.8562 18.3938C16.9977 19.4114 15.4769 19.5405 14.4593 18.682C14.2549 18.5097 14.0807 18.3045 13.9437 18.075L12.7687 16.125H7.23743L6.14993 18.0313C5.71966 18.7822 4.92164 19.2467 4.05618 19.25H3.98743C2.65366 19.2496 1.57279 18.168 1.57324 16.8342C1.57329 16.7013 1.5843 16.5686 1.60618 16.4375L2.96243 8.31876C3.10656 7.413 3.88903 6.74723 4.80618 6.75001H5.44993L6.87493 7.37501H13.1249L14.5499 6.75001H15.1937C16.1108 6.74724 16.8933 7.413 17.0374 8.31876L18.3937 16.4375V16.4375C18.5113 17.1369 18.3147 17.8526 17.8562 18.3938H17.8562Z" fill="#73B9FF"/>
<path d="M14.5502 6.75H5.4502L5.64394 7.52438L6.26894 10.0244V10.0244C6.35052 10.2949 6.59304 10.4851 6.8752 10.5H13.1252C13.4067 10.4855 13.649 10.2964 13.7314 10.0269L14.3564 7.52688L14.5502 6.75Z" fill="#6191F2"/>
<path d="M8.20082 12.9242C8.93305 13.6564 8.93305 14.8436 8.20082 15.5758C7.46859 16.3081 6.2814 16.3081 5.54917 15.5758C4.81694 14.8436 4.81694 13.6564 5.54917 12.9242C6.2814 12.1919 7.46859 12.1919 8.20082 12.9242Z" fill="#475F8A"/>
<path d="M14.4508 12.9242C15.1831 13.6564 15.1831 14.8436 14.4508 15.5758C13.7186 16.3081 12.5314 16.3081 11.7992 15.5758C11.0669 14.8436 11.0669 13.6564 11.7992 12.9242C12.5314 12.1919 13.7186 12.1919 14.4508 12.9242Z" fill="#2E4772"/>
</svg>
