<svg width="20" height="21" viewBox="0 0 20 21" fill="none" xmlns="http://www.w3.org/2000/svg">
<path d="M13.7497 8.625V16.9313L11.2497 12.9437C11.1949 12.8487 11.166 12.741 11.166 12.6312C11.166 12.5215 11.1949 12.4138 11.2497 12.3187L13.2122 8.95625C13.2644 8.85829 13.3416 8.77598 13.4361 8.71776C13.5306 8.65955 13.6388 8.62753 13.7497 8.625Z" fill="#388E3C"/>
<path d="M18.6688 17.0625C18.6137 17.1579 18.5344 17.237 18.4389 17.2919C18.3434 17.3468 18.2351 17.3754 18.125 17.375H14.375C14.2688 17.3752 14.1643 17.3484 14.0713 17.297C13.9784 17.2456 13.9 17.1713 13.8437 17.0813L13.75 16.9313V8.625C13.8591 8.62566 13.9661 8.65485 14.0604 8.70967C14.1547 8.76449 14.233 8.84304 14.2875 8.9375L18.6625 16.4375C18.7183 16.532 18.7483 16.6395 18.7494 16.7492C18.7505 16.8589 18.7227 16.9669 18.6688 17.0625Z" fill="#2E7D32"/>
<path d="M8.1249 6.125V9.875H5.43115L7.59365 6.41875C7.64995 6.32868 7.72827 6.25444 7.82122 6.20305C7.91417 6.15165 8.01869 6.12479 8.1249 6.125Z" fill="#FAFAFA"/>
<path d="M8.12479 9.875V17.375H1.87479C1.76312 17.3752 1.65342 17.3455 1.55712 17.289C1.46082 17.2325 1.38142 17.1511 1.32719 17.0535C1.27295 16.9559 1.24587 16.8455 1.24874 16.7339C1.25162 16.6223 1.28435 16.5134 1.34354 16.4187L5.43104 9.875H8.12479Z" fill="#66BB6A"/>
<path d="M13.125 3.625V7.375C12.6277 7.375 12.1508 7.17746 11.7992 6.82583C11.4475 6.47419 11.25 5.99728 11.25 5.5C11.25 5.00272 11.4475 4.52581 11.7992 4.17417C12.1508 3.82254 12.6277 3.625 13.125 3.625Z" fill="#FFEE58"/>
<path d="M10.8187 9.875H8.125V6.125C8.23122 6.12479 8.33573 6.15165 8.42868 6.20305C8.52164 6.25444 8.59996 6.32868 8.65625 6.41875L10.8187 9.875Z" fill="#CFD8DC"/>
<path d="M14.9188 17.05C14.8653 17.1477 14.7867 17.2294 14.6911 17.2865C14.5955 17.3436 14.4864 17.3742 14.375 17.375H8.125V9.875H10.8187L14.9062 16.4187C14.9642 16.5134 14.9959 16.6217 14.9981 16.7327C15.0003 16.8436 14.9729 16.9531 14.9188 17.05Z" fill="#43A047"/>
<path d="M15 5.5C15 5.99728 14.8025 6.47419 14.4508 6.82583C14.0992 7.17746 13.6223 7.375 13.125 7.375V3.625C13.6223 3.625 14.0992 3.82254 14.4508 4.17417C14.8025 4.52581 15 5.00272 15 5.5Z" fill="#FDD835"/>
</svg>
