<svg width="156" height="18" viewBox="0 0 156 18" fill="none" xmlns="http://www.w3.org/2000/svg">
<path d="M0.532715 17.6951V1.89991H5.2555C6.83913 1.89991 8.19787 2.14349 9.31297 2.61191C10.4281 3.08033 11.3276 3.71739 12.0023 4.49497C12.6864 5.28192 13.183 6.16255 13.4923 7.13687C13.8109 8.11119 13.9702 9.09487 13.9702 10.0786C13.9702 11.2496 13.7546 12.3082 13.333 13.2451C12.9113 14.1819 12.3397 14.9783 11.6088 15.6434C10.8779 16.3086 10.0345 16.8145 9.0787 17.1705C8.11353 17.5171 7.10151 17.6951 6.02389 17.6951H0.532715ZM3.64375 14.6878H5.48976C6.27689 14.6878 6.98906 14.5848 7.63563 14.3787C8.2822 14.1726 8.83506 13.8634 9.30359 13.4699C9.76275 13.0671 10.1188 12.5612 10.3718 11.9522C10.6248 11.3433 10.7467 10.65 10.7467 9.86308C10.7467 8.83255 10.578 7.98939 10.2407 7.34297C9.90331 6.68718 9.49101 6.19065 8.99437 5.82528C8.5071 5.46928 8.00108 5.2257 7.4857 5.08518C6.97032 4.95402 6.53927 4.88844 6.17382 4.88844H3.64375V14.6878ZM16.5846 8.31729H19.5925V17.6951H16.5846V8.31729ZM16.519 4.99149C16.519 4.55118 16.697 4.18581 17.0437 3.89539C17.3998 3.61433 17.7746 3.47381 18.1682 3.47381C18.5711 3.47381 18.9459 3.61433 19.2739 3.89539C19.6113 4.18581 19.7799 4.55118 19.7799 4.99149C19.7799 5.43181 19.6113 5.79718 19.2739 6.07823C18.9459 6.35929 18.5711 6.49044 18.1682 6.49044C17.7746 6.49044 17.3998 6.35929 17.0437 6.07823C16.697 5.79718 16.519 5.43181 16.519 4.99149ZM26.6298 17.948C25.7584 17.948 24.9619 17.7794 24.2591 17.4234C23.5469 17.0768 22.9847 16.5334 22.5724 15.8027C22.1601 15.0719 21.9539 14.1445 21.9539 13.0202C21.9539 11.9616 22.1601 11.0435 22.5911 10.2659C23.0222 9.49771 23.5844 8.89813 24.2872 8.47655C24.99 8.05497 25.7303 7.84887 26.5174 7.84887C27.4544 7.84887 28.1572 7.99876 28.6351 8.30792C29.113 8.61708 29.5066 8.95434 29.8252 9.32908L29.694 9.69445L29.9751 8.31729H32.7676V17.6951H29.7596V15.6528L29.9939 16.2992C29.9658 16.2992 29.8814 16.3835 29.7409 16.5428C29.6003 16.7114 29.3848 16.8988 29.1037 17.1236C28.8226 17.3485 28.4852 17.5358 28.0729 17.7045C27.67 17.8731 27.1827 17.948 26.6298 17.948ZM27.4826 15.5029C27.848 15.5029 28.1666 15.456 28.4477 15.3436C28.7382 15.2406 28.9912 15.0813 29.2068 14.8752C29.4129 14.6691 29.6003 14.4068 29.7596 14.0882V11.793C29.6472 11.4745 29.4785 11.2121 29.2442 10.9873C29.0193 10.7718 28.7476 10.5938 28.429 10.472C28.1198 10.3502 27.7637 10.294 27.3795 10.294C26.9484 10.294 26.5549 10.4065 26.1894 10.6219C25.824 10.8468 25.5335 11.1466 25.318 11.54C25.1024 11.9241 24.9993 12.3645 24.9993 12.8704C24.9993 13.3669 25.1118 13.8166 25.3367 14.2194C25.571 14.6223 25.8708 14.9314 26.255 15.1656C26.6298 15.3905 27.0421 15.5029 27.4826 15.5029ZM38.5774 8.31729L38.8116 9.96614L38.7741 9.84435C39.149 9.21666 39.6081 8.72013 40.1704 8.3735C40.7232 8.0175 41.3979 7.84887 42.185 7.84887C42.7004 7.84887 43.1502 7.91445 43.5438 8.06434C43.9373 8.20487 44.2747 8.41097 44.5464 8.69203C44.8182 8.97308 45.0056 9.32908 45.0993 9.77877L44.9962 9.7975C45.3992 9.21666 45.877 8.73887 46.4487 8.38287C47.0109 8.02687 47.6012 7.84887 48.2197 7.84887C49.1474 7.84887 49.8877 8.11118 50.4405 8.62645C50.984 9.15108 51.2651 9.82561 51.2839 10.6594V17.6951H48.304V11.9054C48.2853 11.4838 48.2197 11.1466 48.1073 10.8842C47.9948 10.6219 47.7324 10.472 47.3107 10.4439C46.8235 10.4439 46.4205 10.6126 46.0832 10.9498C45.7459 11.2777 45.4929 11.7087 45.3336 12.2333C45.1649 12.7579 45.0805 13.2919 45.0805 13.854V17.6951H42.082V11.9054C42.0632 11.4838 41.9883 11.1466 41.8571 10.8842C41.7165 10.6219 41.4448 10.472 41.0231 10.4439C40.5546 10.4439 40.161 10.6126 39.833 10.9498C39.5144 11.2777 39.2708 11.7087 39.1021 12.2239C38.9428 12.7392 38.8585 13.2638 38.8585 13.8072V17.6951H35.8505V8.31729H38.5774ZM53.6453 12.8891C53.6453 11.9335 53.8702 11.0716 54.32 10.3128C54.7697 9.55393 55.4069 8.95434 56.2222 8.5234C57.0374 8.08308 57.9745 7.86761 59.0334 7.86761C60.1016 7.86761 61.0293 8.08308 61.8164 8.5234C62.6036 8.95434 63.2127 9.55393 63.6343 10.3128C64.056 11.0716 64.2622 11.9335 64.2622 12.8891C64.2622 13.8447 64.056 14.7066 63.6343 15.4748C63.2127 16.2336 62.6036 16.8426 61.8164 17.2829C61.0293 17.7326 60.0923 17.948 58.9865 17.948C57.9558 17.948 57.0374 17.7513 56.2316 17.3485C55.4257 16.9456 54.7885 16.3742 54.3293 15.6153C53.8702 14.8565 53.6453 13.9477 53.6453 12.8891ZM56.672 12.9078C56.672 13.395 56.7657 13.8353 56.9718 14.2288C57.1686 14.6223 57.4404 14.9314 57.7871 15.1656C58.1338 15.3905 58.518 15.5029 58.949 15.5029C59.4176 15.5029 59.8205 15.3905 60.1672 15.1656C60.5139 14.9314 60.7763 14.6223 60.9637 14.2288C61.1511 13.8353 61.2448 13.395 61.2448 12.9078C61.2448 12.4113 61.1511 11.9616 60.9637 11.5775C60.7763 11.1934 60.5139 10.8842 60.1672 10.6594C59.8205 10.4252 59.4176 10.3128 58.949 10.3128C58.518 10.3128 58.1338 10.4252 57.7871 10.6594C57.4404 10.8842 57.1686 11.1934 56.9718 11.5775C56.7657 11.9616 56.672 12.4113 56.672 12.9078ZM69.3504 8.31729L69.5847 9.99424L69.5472 9.84435C69.8752 9.25414 70.3437 8.77634 70.9434 8.41097C71.5431 8.04561 72.274 7.86761 73.1549 7.86761C74.0357 7.86761 74.776 8.12992 75.3757 8.65455C75.9661 9.16982 76.2659 9.84435 76.2846 10.6781V17.6951H73.2767V11.793C73.2673 11.3808 73.1549 11.0435 72.9487 10.7999C72.7426 10.547 72.3958 10.4252 71.9086 10.4252C71.4494 10.4252 71.0465 10.5751 70.6998 10.8749C70.3624 11.1747 70.1001 11.5775 69.9126 12.0928C69.7252 12.608 69.6315 13.1982 69.6315 13.8728V17.6951H66.6236V8.31729H69.3504ZM83.1908 17.948C82.3193 17.948 81.5416 17.7513 80.8575 17.3391C80.1641 16.9363 79.63 16.346 79.2364 15.5685C78.8428 14.8003 78.646 13.8821 78.646 12.8235C78.646 11.7649 78.8616 10.8655 79.2832 10.116C79.7143 9.37592 80.3046 8.81382 81.0449 8.42971C81.7946 8.03624 82.6379 7.84887 83.575 7.84887C84.1841 7.84887 84.7557 7.94255 85.3085 8.12055C85.8614 8.30792 86.3206 8.59834 86.6954 8.98245V9.92866V0.766327H89.6752V17.6951H86.6673V15.8683L86.9015 16.5147C86.4236 16.9175 85.8801 17.2548 85.2711 17.5358C84.6713 17.8075 83.9779 17.948 83.1908 17.948ZM84.1841 15.4186C84.5776 15.4186 84.9337 15.3624 85.243 15.2593C85.5522 15.1469 85.8239 14.997 86.0582 14.7909C86.2924 14.5754 86.4986 14.3225 86.6673 14.0039V11.7087C86.5548 11.3901 86.3768 11.1278 86.1425 10.903C85.9083 10.6781 85.6178 10.5095 85.2898 10.3877C84.9524 10.2659 84.5776 10.2097 84.1841 10.2097C83.7343 10.2097 83.322 10.3128 82.9471 10.5376C82.5629 10.7625 82.2631 11.0622 82.0382 11.4463C81.8039 11.8398 81.6915 12.2801 81.6915 12.7767C81.6915 13.2826 81.8039 13.7322 82.0382 14.1351C82.2631 14.5286 82.5629 14.8471 82.9471 15.0719C83.322 15.3061 83.7343 15.4186 84.1841 15.4186ZM105.933 1.89991V17.6951H102.822V11.2777H95.7658V17.6951H92.6548V1.89991H95.7658V8.27982H102.822V1.89991H105.933ZM113.467 17.948C112.595 17.948 111.799 17.7794 111.096 17.4234C110.384 17.0768 109.822 16.5334 109.409 15.8027C108.997 15.0719 108.791 14.1445 108.791 13.0202C108.791 11.9616 109.006 11.0435 109.428 10.2659C109.859 9.49771 110.421 8.89813 111.124 8.47655C111.827 8.05497 112.567 7.84887 113.354 7.84887C114.292 7.84887 114.994 7.99876 115.472 8.30792C115.95 8.61708 116.344 8.95434 116.662 9.32908L116.531 9.69445L116.812 8.31729H119.605V17.6951H116.597V15.6528L116.831 16.2992C116.803 16.2992 116.718 16.3835 116.578 16.5428C116.437 16.7114 116.222 16.8988 115.941 17.1236C115.669 17.3485 115.322 17.5358 114.91 17.7045C114.507 17.8731 114.02 17.948 113.467 17.948ZM114.32 15.5029C114.685 15.5029 115.004 15.456 115.294 15.3436C115.575 15.2406 115.828 15.0813 116.044 14.8752C116.259 14.6691 116.437 14.4068 116.597 14.0882V11.793C116.484 11.4745 116.316 11.2121 116.081 10.9873C115.856 10.7718 115.585 10.5938 115.266 10.472C114.957 10.3502 114.601 10.294 114.217 10.294C113.785 10.294 113.392 10.4065 113.026 10.6219C112.661 10.8468 112.371 11.1466 112.155 11.54C111.939 11.9241 111.836 12.3645 111.836 12.8704C111.836 13.3669 111.949 13.8166 112.174 14.2194C112.408 14.6223 112.708 14.9314 113.092 15.1656C113.467 15.3905 113.879 15.5029 114.32 15.5029ZM125.414 8.31729L125.658 9.99424L125.611 9.84435C125.939 9.25414 126.408 8.77634 127.007 8.41097C127.607 8.04561 128.347 7.86761 129.219 7.86761C130.1 7.86761 130.84 8.12992 131.44 8.65455C132.03 9.16982 132.339 9.84435 132.349 10.6781V17.6951H129.341V11.793C129.331 11.3808 129.219 11.0435 129.013 10.7999C128.807 10.547 128.46 10.4252 127.973 10.4252C127.513 10.4252 127.11 10.5751 126.773 10.8749C126.426 11.1747 126.164 11.5775 125.977 12.0928C125.789 12.608 125.696 13.1982 125.696 13.8728V17.6951H122.697V8.31729H125.414ZM139.255 17.948C138.383 17.948 137.606 17.7513 136.922 17.3391C136.237 16.9363 135.694 16.346 135.3 15.5685C134.907 14.8003 134.71 13.8821 134.71 12.8235C134.71 11.7649 134.926 10.8655 135.357 10.116C135.778 9.37592 136.369 8.81382 137.109 8.42971C137.859 8.03624 138.702 7.84887 139.648 7.84887C140.248 7.84887 140.82 7.94255 141.373 8.12055C141.925 8.30792 142.385 8.59834 142.759 8.98245V9.92866V0.766327H145.739V17.6951H142.731V15.8683L142.975 16.5147C142.488 16.9175 141.944 17.2548 141.344 17.5358C140.735 17.8075 140.042 17.948 139.255 17.948ZM140.248 15.4186C140.651 15.4186 140.998 15.3624 141.307 15.2593C141.616 15.1469 141.888 14.997 142.122 14.7909C142.356 14.5754 142.563 14.3225 142.731 14.0039V11.7087C142.619 11.3901 142.45 11.1278 142.207 10.903C141.972 10.6781 141.691 10.5095 141.354 10.3877C141.016 10.2659 140.651 10.2097 140.248 10.2097C139.798 10.2097 139.395 10.3128 139.011 10.5376C138.636 10.7625 138.327 11.0622 138.102 11.4463C137.868 11.8398 137.755 12.2801 137.755 12.7767C137.755 13.2826 137.868 13.7322 138.102 14.1351C138.327 14.5286 138.636 14.8471 139.011 15.0719C139.395 15.3061 139.798 15.4186 140.248 15.4186ZM151.877 17.8825C151.109 17.8825 150.387 17.7513 149.722 17.4796C149.056 17.2079 148.494 16.8238 148.035 16.346L149.281 14.6878C149.74 15.1094 150.162 15.3998 150.556 15.5778C150.949 15.7558 151.305 15.8495 151.624 15.8495C151.858 15.8495 152.083 15.8214 152.271 15.7746C152.467 15.7277 152.617 15.6434 152.739 15.5404C152.852 15.4279 152.908 15.2874 152.908 15.1188C152.908 14.8752 152.814 14.6785 152.617 14.5379C152.42 14.3974 152.177 14.2756 151.877 14.1819C151.577 14.0883 151.259 13.9946 150.912 13.8915C150.05 13.6198 149.431 13.2264 149.056 12.7017C148.672 12.1865 148.485 11.615 148.485 10.9967C148.485 10.5282 148.616 10.0505 148.86 9.57266C149.113 9.09487 149.516 8.69203 150.059 8.3735C150.612 8.04561 151.324 7.88634 152.196 7.88634C152.983 7.88634 153.648 7.97066 154.192 8.12055C154.735 8.27982 155.25 8.54213 155.738 8.89813L154.604 10.6594C154.332 10.4439 154.023 10.2566 153.695 10.1067C153.358 9.95677 153.039 9.87245 152.758 9.86308C152.495 9.84435 152.28 9.87245 152.102 9.9474C151.924 10.0223 151.783 10.116 151.68 10.2285C151.586 10.3409 151.53 10.4627 151.53 10.5938C151.521 10.8655 151.624 11.081 151.849 11.2402C152.064 11.3901 152.346 11.5119 152.692 11.5962C153.039 11.6899 153.376 11.7836 153.704 11.9054C154.163 12.0459 154.548 12.2333 154.885 12.4769C155.213 12.7205 155.466 13.0109 155.644 13.3481C155.822 13.6854 155.916 14.0883 155.916 14.5567C155.916 15.1375 155.766 15.6715 155.475 16.1774C155.175 16.6927 154.735 17.0955 154.145 17.414C153.545 17.7326 152.795 17.8825 151.877 17.8825Z" fill="#F8F8F8"/>
</svg>
