<svg width="60" height="60" viewBox="0 0 60 60" fill="none" xmlns="http://www.w3.org/2000/svg">
<circle cx="30.0586" cy="29.9414" r="29.9414" fill="#485FE6"/>
<path d="M36.2643 14.563C36.5448 14.563 36.7318 14.7502 36.7318 15.031C36.7318 15.3119 36.5448 15.499 36.2643 15.499H22.3336L30.0936 29.8203L38.2277 14.8438C38.3212 14.563 38.6017 14.4694 38.8822 14.6566C38.8822 14.6566 38.9756 14.6566 38.9756 14.7502L43.3699 19.7112C43.5569 19.8983 43.5569 20.1792 43.3699 20.3664L30.3741 33.5644C30.1872 33.7516 29.9067 33.7516 29.7196 33.5644L16.7239 20.3664C16.6304 20.1792 16.5369 19.8983 16.7239 19.7112L19.7158 16.3414C19.9027 16.1543 20.1832 16.0607 20.3702 16.2478C20.6506 16.4351 20.6506 16.7159 20.4637 16.9031L17.7523 19.992L30.0936 32.5348L42.3414 19.992L38.6951 15.8734L30.4677 31.0371C30.2806 31.318 29.8132 31.318 29.6262 31.0371L21.1182 15.3119C21.0246 15.2182 21.0246 15.1246 21.0246 15.031C21.0246 14.7502 21.2117 14.563 21.4922 14.563H36.2643ZM41.6869 36.0917C41.9675 33.7516 42.5285 28.6034 42.435 28.0419C42.3414 27.6675 41.9675 27.293 41.5 27.293C41.126 27.293 40.8455 27.6675 40.8455 28.0419C40.565 30.5692 40.3781 33.0028 40.0976 35.5301C40.0976 35.8109 41.2195 35.9045 41.6869 36.0917ZM39.8171 28.3227C39.9106 27.3866 40.191 26.6378 41.126 26.357C42.061 26.0761 43.0894 26.825 43.3699 27.8546C43.3699 27.9482 43.3699 28.1354 43.3699 28.4163C44.9594 28.1354 45.7073 29.4459 45.5203 30.9436C46.3617 30.9436 46.8292 31.318 47.1096 32.0668C47.2967 32.6284 47.2032 33.0028 47.2032 33.4708C47.2032 34.6877 47.1096 35.9045 47.1096 37.0278C46.9227 41.0527 46.8292 43.0183 44.3049 46.4817L44.0244 50.881C43.9309 51.5363 42.9959 51.4426 43.0894 50.7874L43.3699 46.2944C43.3699 46.2009 43.4634 46.1073 43.4634 46.0136C45.8942 42.7375 45.9877 40.8655 46.0813 37.0278C46.1748 35.8109 46.1747 34.6877 46.2682 33.4708C46.2682 32.8156 46.2682 31.786 45.4268 31.8795L44.9594 37.6829C45.2398 37.8702 45.6137 38.0573 45.3333 38.5254C45.1463 38.7126 44.8658 38.8062 44.6788 38.619C43.3699 37.7766 42.248 37.0278 40.7521 36.8405C39.9106 36.747 39.2562 36.5597 39.1627 35.6237C38.9756 34.4068 39.5367 31.5988 39.6301 30.0075C39.6301 29.6331 39.6301 29.2587 39.2561 29.0715C38.6951 28.7907 38.2277 29.2587 38.1342 29.9139C37.8537 32.722 37.5732 35.6237 37.2927 38.5254C38.0407 38.7126 38.6951 38.7126 39.6301 39.3678C40.939 40.3039 41.2195 41.2399 41.5935 42.7375C41.7805 43.2992 40.8455 43.58 40.6586 42.9248C40.3781 41.6143 40.191 40.959 39.0691 40.2102C37.9472 39.3678 36.6383 39.6487 35.9838 38.9934C35.2359 38.2446 35.1423 37.4958 33.366 37.3085C32.057 37.1214 32.3376 37.7766 33.0855 38.3382C34.4879 39.3678 34.7683 39.1806 35.0489 41.6143C35.1423 42.6439 35.4228 43.6736 36.3578 44.3288C36.9187 44.7032 37.6667 45.1712 37.4797 46.9497L37.1058 50.3194C37.0123 50.9746 36.0773 50.7874 36.0773 50.2258L36.5448 46.8561C36.7318 44.8904 35.3294 45.452 34.4879 43.4863C34.3009 42.9248 34.114 42.2695 34.114 41.7079C33.9269 39.8358 33.6464 39.9295 32.5245 39.1806C30.8416 37.9638 31.2156 36.0917 33.4595 36.2789C35.2359 36.5597 35.8903 37.3085 36.3578 37.9638L37.1992 29.8203C37.3863 28.3227 38.7886 27.6675 39.8171 28.3227ZM43.2764 29.4459C43.1829 31.6924 42.809 34.3132 42.6219 36.3725L44.0244 37.0278L44.5853 30.8499C44.6788 29.8203 44.3983 29.0715 43.2764 29.4459ZM17.4719 36.3725C17.2849 34.3132 16.9109 31.6924 16.8174 29.4459C15.789 29.0715 15.415 29.8203 15.5085 30.8499L16.0695 37.0278L17.4719 36.3725ZM16.7239 28.4163C16.7239 28.1354 16.7239 27.9482 16.8174 27.8546C17.0979 26.7314 18.3133 25.9826 19.3418 26.5442C19.9963 26.9186 20.1832 27.4802 20.2767 28.3227C21.3986 27.6675 22.801 28.3227 22.8946 29.8203L23.736 37.9638C24.2969 37.3085 24.8579 36.5597 26.6344 36.2789C28.8782 36.0917 29.2522 37.9638 27.5693 39.1806C26.4473 39.9295 26.2604 39.8358 26.0733 41.7079C25.8864 43.0183 25.419 44.2351 24.2969 45.0776C23.923 45.3584 23.4555 45.7329 23.549 46.8561L24.0165 50.2258C24.11 50.7874 23.175 50.9746 23.0815 50.3194L22.6141 46.9497C22.4271 44.8904 23.4555 44.7032 24.11 44.048C24.7645 43.4863 25.045 42.4567 25.045 41.6143C25.3254 39.1806 25.6994 39.3678 27.0083 38.3382C27.7563 37.8702 28.1303 37.1214 26.7278 37.3085C24.9514 37.4958 24.9514 38.2446 24.11 38.9934C23.4555 39.6487 22.1466 39.3678 21.0246 40.2102C19.9027 40.959 19.7158 41.6143 19.4352 42.9248C19.2483 43.58 18.3133 43.2992 18.5003 42.7375C18.8743 41.2399 19.1547 40.3039 20.4637 39.3678C21.3986 38.7126 22.0531 38.7126 22.8946 38.5254C22.6141 35.9981 21.9596 32.1604 21.9596 29.9139C21.8661 28.6971 20.3702 28.7907 20.4637 29.9139C20.6506 31.318 21.1182 34.5941 20.9312 35.6237C20.8377 36.5597 20.1832 36.747 19.3418 36.8405C17.9393 37.0278 16.7239 37.7766 15.5085 38.619C14.9475 38.9934 14.48 38.151 14.9475 37.8702C15.041 37.7766 15.1345 37.6829 15.228 37.6829L14.667 31.8795C13.8256 31.786 13.8256 32.8156 13.8256 33.4708C13.9191 34.6877 13.9191 35.8109 14.0126 37.0278C14.1995 40.8655 14.293 42.7375 16.6304 46.0136C16.7239 46.1073 16.7239 46.2009 16.7239 46.2944L17.0979 50.7874C17.0979 51.4426 16.1629 51.5363 16.0695 50.881L15.789 46.4817C13.3581 43.0183 13.2646 41.0527 13.0776 37.0278C12.9841 35.9045 12.9841 34.6877 12.8906 33.4708C12.8906 32.722 12.9841 31.5988 13.7321 31.1307C14.0126 30.9436 14.293 30.9436 14.5735 30.9436C14.48 29.4459 15.228 28.1354 16.7239 28.4163ZM19.3418 28.0419C19.2483 27.6675 19.0613 27.293 18.6873 27.293C18.2198 27.1994 17.8459 27.6675 17.6588 28.0419C17.5654 28.6034 18.1263 33.7516 18.4068 36.0917C18.8743 35.9045 19.9963 35.8109 19.9963 35.5301C19.8092 33.0028 19.6223 30.4755 19.3418 28.0419ZM35.8903 7.63637C36.0773 7.44916 36.3578 7.44916 36.5448 7.54276C36.8253 7.72996 36.8253 8.01078 36.6383 8.19798L34.0204 11.6613C33.8335 11.8485 33.553 11.8485 33.2724 11.7549C33.0855 11.5677 33.0855 11.2869 33.2724 11.0061L35.8903 7.63637ZM29.6262 5.38989C29.6262 5.10908 29.8132 4.92188 30.0936 4.92188C30.2806 4.92188 30.5611 5.10908 30.5611 5.38989V10.4445C30.5611 10.7253 30.2806 10.9125 30.0936 10.9125C29.8132 10.9125 29.6262 10.7253 29.6262 10.4445V5.38989ZM23.4555 8.19798C23.2686 8.01078 23.362 7.72996 23.549 7.54276C23.736 7.44916 24.0165 7.44916 24.2035 7.63637L26.9149 11.0061C27.0083 11.2869 27.0083 11.5677 26.8213 11.7549C26.6344 11.8485 26.2604 11.8485 26.1669 11.6613L23.4555 8.19798Z" fill="white"/>
</svg>
