<svg width="32" height="32" viewBox="0 0 32 32" fill="none" xmlns="http://www.w3.org/2000/svg">
<rect width="32" height="32" rx="4" fill="#F8F8F8"/>
<g clip-path="url(#clip0_1656_4435)">
<path d="M23.36 8H8.64C8.286 8 8 8.286 8 8.64V23.36C8 23.714 8.286 24 8.64 24H23.36C23.714 24 24 23.714 24 23.36V8.64C24 8.286 23.714 8 23.36 8ZM21.12 12.114L20.304 12.896C20.232 12.95 20.198 13.038 20.212 13.124V18.878C20.198 18.966 20.232 19.054 20.304 19.106L21.104 19.888V20.062H17.088V19.896L17.914 19.094C17.996 19.012 17.996 18.988 17.996 18.866V14.21L15.696 20.042H15.386L12.71 14.21V18.12C12.686 18.284 12.744 18.45 12.86 18.568L13.936 19.87V20.044H10.88V19.87L11.956 18.568C12.0127 18.5094 12.0549 18.4384 12.0792 18.3606C12.1035 18.2828 12.1093 18.2004 12.096 18.12V13.6C12.11 13.474 12.062 13.352 11.966 13.266L11.01 12.114V11.94H13.98L16.272 16.97L18.29 11.944H21.12V12.114Z" fill="#161616"/>
</g>
<defs>
<clipPath id="clip0_1656_4435">
<rect width="16" height="16" fill="white" transform="translate(8 8)"/>
</clipPath>
</defs>
</svg>
