<svg width="15" height="15" viewBox="0 0 15 15" fill="none" xmlns="http://www.w3.org/2000/svg">
<path d="M12.0473 14.4558C11.5141 14.8356 8.09322 12.4284 7.43804 12.4231C6.78286 12.4178 3.32346 14.7697 2.79653 14.3814C2.26961 13.9931 3.50838 10.005 3.31097 9.38208C3.11356 8.75914 -0.198615 6.20512 0.00886186 5.58541C0.216384 4.96571 4.40288 4.90815 4.93602 4.5284C5.46917 4.1487 6.88157 0.218393 7.5368 0.223638C8.19193 0.228929 9.54053 4.18145 10.0675 4.56972C10.5944 4.95796 14.7795 5.08293 14.9769 5.70587C15.1743 6.32881 11.8213 8.8292 11.6138 9.4489C11.4063 10.0686 12.5804 14.0761 12.0473 14.4558Z" fill="url(#paint0_linear_1375_3514)"/>
<defs>
<linearGradient id="paint0_linear_1375_3514" x1="-0.000469099" y1="7.36005" x2="14.9853" y2="7.36005" gradientUnits="userSpaceOnUse">
<stop stop-color="#FCD635"/>
<stop offset="1" stop-color="#F7A928"/>
</linearGradient>
</defs>
</svg>
