<svg width="20" height="19" viewBox="0 0 20 19" fill="none" xmlns="http://www.w3.org/2000/svg">
<path d="M14.2647 6C13.8586 6 13.5294 5.67083 13.5294 5.26471V3.24266C13.5294 2.81695 13.1832 2.47061 12.7574 2.47061H7.24265C6.81684 2.47061 6.47056 2.81695 6.47056 3.24266V5.26471C6.47056 5.67083 6.14132 6 5.73528 6C5.3292 6 5 5.67083 5 5.26471V3.24266C4.99997 2.00605 6.00598 1 7.24265 1H12.7573C13.994 1 15 2.00605 15 3.24266V5.26471C15 5.67083 14.6708 6 14.2647 6Z" fill="#A965FF"/>
<path d="M17.5 4H2.49999C2.22388 4 2 4.24055 2 4.53722V14.9811C2 16.0943 2.84291 17 3.8789 17H16.1211C17.1571 17 18 16.0943 18 14.9811V4.53722C18 4.24055 17.7761 4 17.5 4Z" fill="#C99EFF"/>
<path d="M17.5 4H2.49999C2.22388 4 2 4.25415 2 4.5676V7.67002C2 9.50615 3.31593 11 4.93334 11H15.0666C16.6841 11 18 9.50615 18 7.67002V4.5676C18 4.25415 17.7761 4 17.5 4Z" fill="#A965FF"/>
<path d="M7.25484 10H5.49019C5.21947 10 5 10.2397 5 10.5357V12.4643C5 12.7603 5.21949 13 5.49019 13H7.25484C7.52556 13 7.74503 12.7603 7.74503 12.4643V10.5357C7.74505 10.2397 7.52556 10 7.25484 10ZM14.5098 10H12.7452C12.4744 10 12.255 10.2397 12.255 10.5357V12.4643C12.255 12.7603 12.4745 13 12.7452 13H14.5098C14.7805 13 15 12.7603 15 12.4643V10.5357C15 10.2397 14.7805 10 14.5098 10Z" fill="#FEF49C"/>
<path d="M7.47618 10H7C7.26298 10 7.47618 10.2397 7.47618 10.5357V12.4643C7.47618 12.7603 7.26296 13 7 13H7.47618C7.73917 13 7.95236 12.7603 7.95236 12.4643V10.5357C7.95239 10.2397 7.73917 10 7.47618 10ZM14.5238 10H14.0476C14.3106 10 14.5238 10.2397 14.5238 10.5357V12.4643C14.5238 12.7603 14.3106 13 14.0476 13H14.5238C14.7868 13 15 12.7603 15 12.4643V10.5357C15 10.2397 14.7868 10 14.5238 10Z" fill="#FEF076"/>
</svg>
