<svg width="44" height="34" viewBox="0 0 44 34" fill="none" xmlns="http://www.w3.org/2000/svg">
<path d="M2.88216 12.7035C2.16999 12.2913 0.783141 12.2538 0.942441 12.8721L4.63446 26.625C5.14984 28.5643 6.66788 30.082 8.59822 30.5972C9.86325 30.9345 20.1803 33.82 20.5551 33.7263C20.8456 33.642 21.033 33.3422 20.958 33.033C20.2553 30.438 20.1053 29.1826 18.1843 27.1497C15.5887 24.3766 10.4349 24.386 9.59151 23.5334C8.90745 22.8495 9.28228 20.7135 7.78298 19.8516C6.68662 19.224 5.23418 19.5987 5.50592 20.6105L6.69599 25.023C7.48312 27.9834 11.147 27.3089 11.3813 28.1614C11.4656 28.4706 11.1751 28.761 10.8659 28.6767C8.78564 28.124 6.57417 27.8617 5.88075 25.276L4.69068 20.8353C4.39082 19.6924 5.2904 19.1771 5.26229 19.0553L3.92229 14.0713C3.76299 13.4717 3.3788 12.9939 2.88216 12.7035V12.7035Z" fill="#485FE6"/>
<path d="M41.0674 12.7035C41.7795 12.3007 43.1664 12.2538 42.9977 12.8815L39.3151 26.6344C38.7997 28.5643 37.2816 30.082 35.3513 30.5972C34.0863 30.9345 23.7599 33.82 23.3944 33.7263C23.0946 33.642 22.9165 33.3422 22.9915 33.033C23.3663 31.6465 23.8067 29.6136 24.6594 28.4987C25.9713 26.7843 27.3957 25.5476 29.5509 24.9668C30.3287 24.7607 33.9644 23.9269 34.358 23.5334C35.0421 22.8495 34.6672 20.7229 36.1665 19.8516C37.2629 19.2239 38.7153 19.5987 38.4436 20.6105L37.2535 25.0324C36.4664 27.9834 32.7931 27.3089 32.5682 28.1614C32.4839 28.48 32.7744 28.761 33.0836 28.6767C35.1639 28.124 37.3753 27.8617 38.0688 25.276L39.2588 20.8353C39.5587 19.7017 38.6591 19.1771 38.6872 19.0553L40.0272 14.0713C40.1865 13.4717 40.5707 12.9939 41.0674 12.7035V12.7035Z" fill="#485FE6"/>
<path fill-rule="evenodd" clip-rule="evenodd" d="M15.2045 0.964844L13.1055 8.16918L3.69739 7.4197L10.3974 0.964844H15.2045V0.964844ZM27.1895 0.964844L29.5602 8.20665H14.4455L16.5539 0.964844H27.1895V0.964844ZM40.3552 7.4197L30.9096 8.16918L28.5576 0.964844H33.7583L40.3552 7.4197V7.4197ZM23.9473 27.337L30.9096 9.47139L40.2802 8.73128L26.318 24.6389L23.9473 27.337V27.337ZM29.504 9.50886L22.0169 28.7329L14.5298 9.50886H29.504V9.50886ZM13.1242 9.47139L20.0772 27.3276L17.2941 24.1611L3.74424 8.73128L13.1242 9.47139V9.47139Z" fill="#485FE6"/>
</svg>
